<?xml version="1.0" encoding="UTF-8"?>
<svg id="Capa_1" data-name="Capa 1" xmlns="http://www.w3.org/2000/svg" viewBox="0 0 283.46 283.46">
  <defs>
    <style>
      .cls-1 {
        fill: #52907f;
      }

      .cls-2 {
        fill: #546881;
      }

      .cls-3 {
        fill: #e37c6c;
      }

      .cls-4 {
        fill: #f4d880;
      }
    </style>
  </defs>
  <polygon class="cls-1" points="56.69 96.41 66.62 96.41 66.62 86.48 46.75 86.48 46.75 136.14 86.49 136.14 86.49 46.75 46.75 46.75 46.75 56.69 76.55 56.69 76.55 126.21 56.69 126.21 56.69 96.41"/>
  <polygon class="cls-3" points="126.21 96.41 116.27 96.41 116.27 86.48 136.14 86.48 136.14 136.14 96.41 136.14 96.41 46.75 136.14 46.75 136.14 56.69 106.34 56.69 106.34 126.21 126.21 126.21 126.21 96.41"/>
  <polygon class="cls-4" points="187.05 126.21 187.05 116.27 196.98 116.27 196.98 136.14 147.32 136.14 147.33 96.41 236.71 96.41 236.71 136.14 226.78 136.14 226.78 106.34 157.26 106.34 157.26 126.21 187.05 126.21"/>
  <polygon class="cls-2" points="187.05 56.69 187.05 66.62 196.98 66.62 196.98 46.75 147.32 46.75 147.33 86.49 236.71 86.49 236.71 46.75 226.78 46.75 226.78 76.55 157.26 76.55 157.26 56.69 187.05 56.69"/>
  <polygon class="cls-1" points="226.78 187.05 216.84 187.05 216.84 196.98 236.71 196.98 236.71 147.32 196.98 147.32 196.98 236.71 236.71 236.71 236.71 226.78 206.91 226.78 206.91 157.26 226.78 157.26 226.78 187.05"/>
  <polygon class="cls-3" points="157.26 187.05 167.19 187.05 167.19 196.98 147.32 196.98 147.32 147.32 187.06 147.32 187.06 236.71 147.32 236.71 147.32 226.78 177.12 226.78 177.12 157.26 157.26 157.26 157.26 187.05"/>
  <polygon class="cls-2" points="96.41 226.78 96.41 216.84 86.48 216.84 86.48 236.71 136.14 236.71 136.14 196.98 46.75 196.98 46.75 236.71 56.69 236.71 56.69 206.91 126.21 206.91 126.21 226.78 96.41 226.78"/>
  <polygon class="cls-4" points="96.41 157.26 96.41 167.19 86.48 167.19 86.48 147.32 136.14 147.32 136.14 187.06 46.75 187.06 46.75 147.32 56.69 147.32 56.69 177.12 126.21 177.12 126.21 157.26 96.41 157.26"/>
</svg>